<svg version="1.1" id="Capa_1" xmlns="http://www.w3.org/2000/svg" xmlns:xlink="http://www.w3.org/1999/xlink" x="0px" y="0px" viewBox="0 0 512 512" style="enable-background:new 0 0 512 512;" xml:space="preserve">
<path style="fill: rgb(0, 0, 0);" d="M512,137.067v301.867c0,18.133-13.867,32-32,32H32c-18.133,0-32-13.867-32-32V137.067
	c0-17.067,13.867-32,32-32h448C498.133,105.067,512,118.933,512,137.067z" id="id_101"></path>
<path style="fill: rgb(144, 152, 153);" d="M512,216v-78.933c0-17.067-13.867-32-32-32H32c-18.133,0-32,14.933-32,32V216H512z" id="id_102"></path>
<circle style="fill: rgb(178, 204, 30);" cx="289.067" cy="287.467" r="145.067" id="id_103"></circle>
<circle style="fill: rgb(0, 0, 0);" cx="289.067" cy="287.467" r="106.667" id="id_104"></circle>
<circle style="fill: rgb(28, 153, 151);" cx="289.067" cy="287.467" r="62.933" id="id_105"></circle>
<circle style="fill: rgb(23, 230, 227);" cx="332.8" cy="260.8" r="26.667" id="id_106"></circle>
<path style="fill: rgb(255, 255, 255);" d="M118.4,181.867H49.067c-5.333,0-9.6-4.267-9.6-9.6v-19.2c0-5.333,4.267-9.6,9.6-9.6H118.4
	c5.333,0,9.6,4.267,9.6,9.6v19.2C128,177.6,123.733,181.867,118.4,181.867z" id="id_107"></path>
<path style="fill: rgb(45, 67, 71);" d="M106.667,75.2h-38.4c-5.333,0-9.6,4.267-9.6,9.6V104h57.6V85.867
	C116.267,79.467,112,75.2,106.667,75.2z" id="id_108"></path>
<path style="fill: rgb(49, 72, 77);" d="M347.733,41.067H230.4c-10.667,0-19.2,6.4-22.4,16l-16,48h196.267l-16-48
	C368,47.467,358.4,41.067,347.733,41.067z" id="id_109"></path>
<g>
</g>
<g>
</g>
<g>
</g>
<g>
</g>
<g>
</g>
<g>
</g>
<g>
</g>
<g>
</g>
<g>
</g>
<g>
</g>
<g>
</g>
<g>
</g>
<g>
</g>
<g>
</g>
<g>
</g>
</svg>